<?xml version="1.0" encoding="iso-8859-1"?>
<!-- Uploaded to: SVG Repo, www.svgrepo.com, Generator: SVG Repo Mixer Tools -->
<!DOCTYPE svg PUBLIC "-//W3C//DTD SVG 1.1//EN" "http://www.w3.org/Graphics/SVG/1.1/DTD/svg11.dtd">
<svg fill="#000000" version="1.1" id="Capa_1" xmlns="http://www.w3.org/2000/svg" xmlns:xlink="http://www.w3.org/1999/xlink" 
	 width="800px" height="800px" viewBox="0 0 422.271 422.271"
	 xml:space="preserve">
<g>
	<g>
		<path d="M258.279,263.589c0-7.601,2.959-14.749,8.335-20.125l71.272-71.181l11.459-11.456l-0.006-58.571
			c-0.053-7.731-5.92-15.722-13.496-15.722L105.051,86.5c-12.82,0-23.25-10.43-23.25-23.25c0-12.82,10.43-23.25,23.25-23.25h224.252
			c11.047,0,20-8.954,20-20c0-11.046-8.953-20-20-20H105.051C70.176,0,41.852,28.374,41.852,63.25l0.008,343.869
			c0,9.396,6.715,15.152,15,15.152h34.941V144.435c0-8.284,6.717-15,15-15c8.285,0,15,6.716,15,15v277.836h212.545
			c8.283,0,15-6.716,15-15v-40.852l-82.729-82.702C261.238,278.335,258.279,271.189,258.279,263.589z"/>
		<path d="M374.247,170.884c-3.737-1.549-8.038-0.692-10.898,2.167l-83.301,83.301c-3.905,3.905-3.905,10.237,0,14.143
			l83.301,83.302c1.913,1.913,4.471,2.929,7.073,2.929c1.288,0,2.588-0.25,3.825-0.762c3.735-1.548,6.173-5.194,6.173-9.239V180.122
			C380.42,176.078,377.983,172.431,374.247,170.884z M333.807,279.792c-8.934,0-16.176-7.242-16.176-16.177
			c0-8.934,7.242-16.176,16.176-16.176c8.935,0,16.176,7.242,16.176,16.176C349.982,272.55,342.739,279.792,333.807,279.792z"/>
	</g>
</g>
</svg>