<svg width="973" height="1117" viewBox="0 0 973 1117" fill="none" xmlns="http://www.w3.org/2000/svg">
<rect width="973" height="1117" fill="#FFC64C"/>
<path d="M318 922L352 1004L10 1144L-10 1118L318 922Z" fill="black" stroke="#101010" stroke-width="5"/>
<path d="M351 1003L342 972V874L168 330L586 228L796 846L351 1003Z" fill="#62321F" stroke="#451D0E" stroke-width="5"/>
<path d="M764 801L774 761L369 896L359 986L756 839L764 819L746 806L764 801Z" fill="#FFFAD4" stroke="#A69200" stroke-width="5"/>
<path d="M269 791L347 993L361 988L379 888L269 791Z" fill="#62321F" stroke="#451D0E" stroke-width="5"/>
<path d="M587 214L209 310L369 896L771 762L587 214Z" fill="#FFFAD4" stroke="#A69200" stroke-width="5"/>
<path d="M-30 1144L372 898L338 828L196 324C84 349.333 -143.6 400 -158 400C-172.4 400 -78.6667 896 -30 1144Z" fill="#7F381C" stroke="#451D0E" stroke-width="5"/>
<path d="M240 927C250.4 922.2 335.333 902.667 376 894C367.667 876.667 349.8 840.6 349 831C348 819 288 808 275 807C262 806 158 851 149 851C140 851 -5 1018 -5 1023C-5 1027 -10 1074 -10 1087L17 1067L104 1004C145 980.333 229.6 931.8 240 927Z" fill="black" stroke="#101010" stroke-width="5"/>
<path d="M298 840L370 888L345.561 802L212 332L130 306H22C10 306 -72 384 -84 392C-93.6 398.4 -80 858.667 -72 1088L-6 1048L130 954L226 864L298 840Z" fill="#FFFAD4"/>
<path d="M88 550L52 564L32 576L-6 616M66 504L32 518L-20 550M-6 480L32 462M52 414H32M32 370L-6 392L-34 428M370 888L298 840L226 864L130 954L-6 1048L-72 1088C-80 858.667 -93.6 398.4 -84 392C-72 384 10 306 22 306C31.6 306 98 306 130 306L212 332L345.561 802L370 888Z" stroke="#A69200" stroke-width="5"/>
<path d="M463 914L532 889M734 839C727.6 839.8 604.667 885.333 544 908M316 794L244 782C227.333 788.667 191.2 802.8 180 806C168.8 809.2 112.667 875.333 86 908L32 956M-10 908C-0.4 892.8 30 872.333 44 864L86 806L138 760L196 742H264M224 682H138L100 700L60 732M32 760L12 794L-10 806M100 590L44 618L32 650L-10 682" stroke="#A59200" stroke-width="5"/>
<path d="M319 845L299 754L270 699L204 686C164 680.667 82 670 74 670C64 670 60 586 56 576C52 566 -13 349 -5 330C1.85795 313.712 28.6667 296.667 34 304L56 317C80.6667 332.333 109.6 363.6 116 370C122.4 376.4 221.333 592 270 699L299 754C320 792.333 335.1 825.9 341.5 831.5C347.9 837.1 372.667 885.667 370 887L319 845Z" fill="black"/>
<path d="M299 754L319 845L370 887C372.667 885.667 347.9 837.1 341.5 831.5C335.1 825.9 320 792.333 299 754ZM299 754L270 699M270 699C221.333 592 122.4 376.4 116 370C109.6 363.6 80.6667 332.333 56 317L34 304C28.6667 296.667 1.85795 313.712 -5 330C-13 349 52 566 56 576C60 586 64 670 74 670C82 670 164 680.667 204 686L270 699Z" stroke="#101010" stroke-width="5"/>
<path d="M266 698L376 892L216 312C197.333 276 159.6 202 158 194C156.4 186 106.667 153.333 82 138L-18 124L104 606L266 698Z" fill="#FFFAD4" stroke="#A69200" stroke-width="5"/>
<path d="M391 912C408.6 908 618.333 837 721 802" stroke="#A59200" stroke-width="5"/>
<path d="M136 578C144 578 210 608.667 242 624L306 686L352 796M206 558L260 596L290 624L322 692M124 518C133.6 518 158.667 530 170 536M104 452L206 488L260 536L290 583M82 376L124 392L170 418M206 434L242 472L268 503M52 308C68 309.6 121.333 328.667 146 338L220 392L242 434M231 369C220.6 357.8 200.667 321.667 191 308C177.667 299 150 280.8 146 280C142 279.2 109 269.667 93 265M220 325C215 313 163 247 157 243C152.2 239.8 112.333 207 93 191L25 176" stroke="#A59200" stroke-width="5"/>
<path d="M396 840L724 740M504 772L724 706M484 782L384 806M366 762L612 690M642 680L710 658M698 620L564 658L466 690M430 706L352 726M352 680C363.2 680 572.667 614.667 676 582M666 538C654.8 539.6 580 568 544 582L450 600L334 642M316 600C330.4 600 422 572 466 558L578 528L656 498M642 472C618 473.6 566.667 490 544 498M484 516L396 538L316 558M292 538L450 484L518 472M544 460C560 458.4 616 443.333 642 436M626 410C614.8 410 504 435.333 450 448L334 484M316 484L292 498M276 460C316.667 448.667 401.2 425.6 414 424C426.8 422.4 506 402 544 392M564 378L612 368M602 338C571.6 342.8 510.667 360 484 368L366 410L276 424M260 392C272.8 392 336 376 366 368L430 338M460 330C479.2 336.4 537.333 319.333 564 310H588M578 274C566.8 278.8 457.333 308 404 322L316 350L250 368M250 330C279.333 323.333 340.8 310 352 310C363.2 310 386 300.667 396 296" stroke="#A59200" stroke-width="5"/>
<path d="M630 807C628.333 789.667 625 753.8 625 749L652 781V800V875C707.667 903.667 820 962.2 824 967C829 973 810 987 804 986C799.2 985.2 686 933 630 907L625 891L630 812V807Z" fill="black"/>
<path d="M630 807C628.333 789.667 625 753.8 625 749L652 781V800M630 807L652 800M630 807V812L625 891L630 907C686 933 799.2 985.2 804 986C810 987 829 973 824 967C820 962.2 707.667 903.667 652 875V800" stroke="black" stroke-width="5"/>
<path d="M457 553.5L448 542.5L451.5 539C455.667 539.333 464.8 540.5 468 542.5C472 545 505.5 573.5 511 575C516.5 576.5 536 594 542.5 596.5C547.7 598.5 544.667 602.667 542.5 604.5L527.5 607L519 599L511 604.5H498L476.5 599L464 590L461.5 568L457 553.5Z" fill="black" stroke="#101010" stroke-width="5"/>
<path d="M472.172 558.837L458.527 544.022L467.582 538.416L474.42 549.75L472.172 558.837Z" fill="#BBC3C6" stroke="#463E5B" stroke-width="5"/>
<path d="M499.892 540.602L501.463 531.577L488.249 532.779C488.403 535.725 488.816 542.019 489.235 543.62C489.654 545.222 496.514 542.275 499.892 540.602Z" fill="#BBC3C6" stroke="#463E5B" stroke-width="5"/>
<path d="M444.543 540.511C443.089 539.55 446.832 531.876 448.886 528.16L454.276 531.086L470.292 538.169L462.469 542.297C459.892 542.759 454.387 543.578 452.983 543.16C451.227 542.636 446.36 541.712 444.543 540.511Z" fill="#BBC3C6" stroke="#463E5B" stroke-width="5"/>
<path d="M472.603 552.307L467.366 539.802L493.547 534.688L496.812 540.54L511.535 544.667C517.367 548.691 529.08 557.282 529.277 559.451L531.002 578.424L515.787 591.422L494.411 596.782L475.869 588.22L470.078 569.617L472.603 552.307Z" fill="#BBC3C6" stroke="#463E5B" stroke-width="5"/>
<path d="M503.218 524.585L496.935 519.349L487.787 520.181L488.988 533.395L501.339 530.222L503.218 524.585Z" fill="#BBC3C6" stroke="#463E5B" stroke-width="5"/>
<path d="M519.974 547.315C515.2 551.166 503.805 564.842 503.805 564.842L516.002 563.732C516.002 563.732 523.301 557.603 524.071 554.8C524.841 551.997 535.868 550.789 540.796 550.888C547.641 551.024 556.124 541.637 560.908 539.152L565.62 515.836L547.324 502.469L537.345 512.941L547.817 507.89C550.938 509.655 557.513 513.84 558.844 516.452C560.175 519.064 557.345 530.025 555.765 535.179C551.966 538.485 545.927 544.955 542.675 545.251C539.422 545.547 524.748 543.465 519.974 547.315Z" fill="#BBC3C6" stroke="#463E5B" stroke-width="5"/>
<path d="M496.254 481.43L486.325 500.347L492.472 506.676L493.667 519.814L505.699 524.018L514.742 523.195C516.751 523.013 519.934 515.305 521.274 511.475L519.983 497.286C519.785 493.242 519.238 484.638 518.645 482.572C518.052 480.507 512.674 474.461 510.058 471.697L496.254 481.43Z" fill="#BBC3C6" stroke="#463E5B" stroke-width="5"/>
<path d="M449.683 518.151L457.855 508.444C460.159 506.125 465.101 500.72 466.431 497.646C467.761 494.572 473.716 492.941 476.527 492.51C480.487 495.489 488.982 502.239 491.282 505.404C493.582 508.57 495.282 518.046 495.845 522.389L494.135 536.781L475.914 541.074L463.203 539.594L450.825 530.701L449.683 518.151Z" fill="#BBC3C6" stroke="#463E5B" stroke-width="5"/>
<path d="M469.952 524.589L472.031 508.459C470.603 505.755 466.464 499.614 461.334 496.68C454.92 493.012 455.614 495.074 451.714 491.178C448.593 488.061 437.348 491.068 432.116 492.961C432.483 497.001 426.58 504.516 427.309 512.526C428.219 522.539 439.921 523.069 440.807 527.24C441.693 531.41 451.504 539.019 459.496 537.761C465.89 536.754 469.131 528.56 469.952 524.589Z" fill="#BBC3C6" stroke="#463E5B" stroke-width="5"/>
<path d="M522.933 594.872L521.762 581.997L525.858 578.209L531.249 581.134C534.288 584.502 540.834 588.871 543.939 592.962C547.044 597.052 545.726 600.087 544.679 601.093L533.159 602.141L522.933 594.872Z" fill="#BBC3C6" stroke="#463E5B" stroke-width="5"/>
<path d="M506.455 597.737L498.354 595.057L500.356 583.261L501.464 576.669L507.316 569.646C519.082 571.309 515.325 578.825 515.602 581.874C516.033 586.617 514.216 585.416 512.276 590.375C511.086 593.417 508.262 597.573 506.455 597.737Z" fill="#BBC3C6" stroke="#463E5B" stroke-width="5"/>
<path d="M597.325 631C585.047 612.446 560.393 574.871 560 573L579.645 587.968L635.633 603.871L643 612.758L603.71 631H597.325Z" fill="black" stroke="black" stroke-width="5"/>
<path d="M338 969L375 899H368L321.5 934.5L338 969Z" fill="black" stroke="#101010" stroke-width="5"/>
<path fill-rule="evenodd" clip-rule="evenodd" d="M583.5 555.5L560 568L603 623V601.5L639.5 584.5L583.5 555.5Z" fill="#F4DA43"/>
<path d="M639.5 584.5L603 601.5V623L639.5 605V584.5Z" fill="#F4DA43"/>
<path d="M560 568L583.5 555.5L639.5 584.5M560 568L603 601.5M560 568L603 623M603 601.5L639.5 584.5M603 601.5V623M639.5 584.5V605L603 623" stroke="#60561D" stroke-width="5"/>
<path d="M609.5 578.5L613 572L623 577C621.833 578.833 618.7 582.5 615.5 582.5C612.3 582.5 610.167 579.833 609.5 578.5Z" fill="#AC9617"/>
<path d="M575.5 572L571 574L578 582.5L582.5 581V576L575.5 572Z" fill="#AC9617"/>
<path d="M613 609V616.5L620.5 613L623 610.5V604.5L617 606C615.4 606.4 613.667 608.167 613 609Z" fill="#AC9617"/>
<path d="M609.5 578.5L613 572L623 577C621.833 578.833 618.7 582.5 615.5 582.5C612.3 582.5 610.167 579.833 609.5 578.5Z" stroke="#60561D" stroke-width="5"/>
<path d="M575.5 572L571 574L578 582.5L582.5 581V576L575.5 572Z" stroke="#60561D" stroke-width="5"/>
<path d="M613 609V616.5L620.5 613L623 610.5V604.5L617 606C615.4 606.4 613.667 608.167 613 609Z" stroke="#60561D" stroke-width="5"/>
<path d="M792 970L640 792L666 772L818 948L792 970Z" fill="#B5E4AD" stroke="#43733B" stroke-width="5"/>
<path d="M625 747.5L639 792L667.5 771.5L625 747.5Z" fill="#F0F7CA" stroke="#43733B" stroke-width="5"/>
<path d="M807.5 986L798.5 979L823.5 955.5L831.5 965.5V979C828.333 983.667 825.5 986 823.5 986H807.5Z" fill="#F4ADAD" stroke="#43733B" stroke-width="5"/>
<path d="M798 977.5C795.6 977.5 793 972.167 792 969.5L817 947.5C818.333 949.333 821.7 953.5 824.5 955.5C828 958 801 977.5 798 977.5Z" fill="#D9D9D9" stroke="#43733B" stroke-width="5"/>
<path d="M630.5 766C628.333 759.5 623.7 745.8 622.5 743L639.5 755.5L630.5 766Z" fill="black" stroke="#43733B" stroke-width="5"/>
</svg>
